<svg width="32" height="32" viewBox="0 0 32 32" fill="none" xmlns="http://www.w3.org/2000/svg">
  <!-- Coffee Cup -->
  <path d="M8 12C8 10.8954 8.89543 10 10 10H18C19.1046 10 20 10.8954 20 12V20C20 21.1046 19.1046 22 18 22H10C8.89543 22 8 21.1046 8 20V12Z" fill="#F59E0B"/>
  
  <!-- Cup Handle -->
  <path d="M20 14C20 12.8954 20.8954 12 22 12H24C25.1046 12 26 12.8954 26 14V18C26 19.1046 25.1046 20 24 20H22C20.8954 20 20 19.1046 20 18V14Z" fill="#F59E0B"/>
  
  <!-- Coffee Steam -->
  <path d="M12 8C12 8 13 7 14 8C15 9 14 10 14 10" stroke="#F59E0B" stroke-width="1.5" stroke-linecap="round"/>
  <path d="M16 8C16 8 17 7 18 8C19 9 18 10 18 10" stroke="#F59E0B" stroke-width="1.5" stroke-linecap="round"/>
  
  <!-- Coffee Bean -->
  <ellipse cx="14" cy="16" rx="1.5" ry="2" fill="#92400E" transform="rotate(45 14 16)"/>
  <ellipse cx="16" cy="16" rx="1.5" ry="2" fill="#92400E" transform="rotate(-30 16 16)"/>
  
  <!-- Background Circle -->
  <circle cx="16" cy="16" r="15" fill="none" stroke="#F59E0B" stroke-width="1"/>
</svg> 